<svg width="138" height="47" viewBox="0 0 138 47" fill="none" xmlns="http://www.w3.org/2000/svg">
<path d="M31.971 24.168H31.125V30H29.631V17.4H31.125V23.268L31.935 23.016L36.165 17.4H37.893L33.681 22.818L32.925 23.412L33.843 24.132L38.451 30H36.561L31.971 24.168ZM48.4113 26.508H43.7673L42.5073 30H41.0313L45.8013 17.202H46.4853L51.2733 30H49.7073L48.4113 26.508ZM44.2533 25.212H47.9613L46.5573 21.378L46.1073 19.47H46.0893L45.6393 21.414L44.2533 25.212ZM61.6697 18.732H57.7457V30H56.2517V18.732H52.3277V17.4H61.6697V18.732ZM70.0992 26.508H65.4552L64.1952 30H62.7192L67.4892 17.202H68.1732L72.9612 30H71.3952L70.0992 26.508ZM65.9412 25.212H69.6492L68.2452 21.378L67.7952 19.47H67.7772L67.3272 21.414L65.9412 25.212ZM83.007 18.732H79.245C79.125 21.132 78.963 23.13 78.759 24.726C78.567 26.31 78.273 27.546 77.877 28.434C77.613 29.01 77.301 29.43 76.941 29.694C76.581 29.958 76.191 30.09 75.771 30.09C75.555 30.09 75.369 30.072 75.213 30.036C75.057 30.012 74.907 29.97 74.763 29.91L74.961 28.614C75.081 28.65 75.207 28.668 75.339 28.668C75.543 28.668 75.741 28.602 75.933 28.47C76.137 28.338 76.335 28.092 76.527 27.732C76.695 27.408 76.851 26.976 76.995 26.436C77.151 25.896 77.283 25.212 77.391 24.384C77.511 23.556 77.607 22.572 77.679 21.432C77.751 20.28 77.805 18.936 77.841 17.4H84.501V30H83.007V18.732ZM88.8394 23.7C88.8394 21.6 89.2834 19.992 90.1714 18.876C91.0594 17.748 92.3254 17.184 93.9694 17.184C94.8574 17.184 95.6254 17.34 96.2734 17.652C96.9214 17.964 97.4554 18.408 97.8754 18.984C98.3074 19.548 98.6254 20.232 98.8294 21.036C99.0334 21.828 99.1354 22.716 99.1354 23.7C99.1354 25.8 98.6854 27.414 97.7854 28.542C96.8974 29.658 95.6254 30.216 93.9694 30.216C93.0934 30.216 92.3314 30.06 91.6834 29.748C91.0474 29.436 90.5134 28.998 90.0814 28.434C89.6614 27.858 89.3494 27.174 89.1454 26.382C88.9414 25.578 88.8394 24.684 88.8394 23.7ZM90.4234 23.7C90.4234 24.396 90.4894 25.056 90.6214 25.68C90.7654 26.304 90.9814 26.856 91.2694 27.336C91.5574 27.804 91.9234 28.182 92.3674 28.47C92.8234 28.746 93.3574 28.884 93.9694 28.884C95.0854 28.884 95.9614 28.464 96.5974 27.624C97.2334 26.772 97.5514 25.464 97.5514 23.7C97.5514 23.016 97.4794 22.362 97.3354 21.738C97.2034 21.102 96.9874 20.55 96.6874 20.082C96.3994 19.602 96.0274 19.224 95.5714 18.948C95.1274 18.66 94.5934 18.516 93.9694 18.516C92.8654 18.516 91.9954 18.942 91.3594 19.794C90.7354 20.634 90.4234 21.936 90.4234 23.7ZM110.216 18.732H104.96V30H103.466V17.4H110.216V18.732Z" fill="white"/>
<rect x="0.5" y="0.5" width="137" height="46" stroke="white"/>
</svg>
